<svg width="162" height="162" viewBox="0 0 162 162" fill="none" xmlns="http://www.w3.org/2000/svg">
<path d="M5.0625 81C5.0625 123.019 38.9812 156.938 81 156.938C123.019 156.938 156.938 123.019 156.938 81C156.938 38.9812 123.019 5.0625 81 5.0625C38.9812 5.0625 5.0625 38.9812 5.0625 81Z" fill="#FFDD67"/>
<path d="M120.74 95.1748C120.74 116.944 150.356 116.944 150.356 95.1748C150.356 79.228 135.675 63.7874 135.675 63.7874C135.675 63.7874 120.74 79.228 120.74 95.1748" fill="#65B1EF"/>
<path d="M97.4531 101.25C104.443 101.25 110.109 95.5836 110.109 88.5938C110.109 81.6039 104.443 75.9375 97.4531 75.9375C90.4633 75.9375 84.7969 81.6039 84.7969 88.5938C84.7969 95.5836 90.4633 101.25 97.4531 101.25Z" fill="#664E27"/>
<path d="M39.2344 101.25C46.2242 101.25 51.8906 95.5836 51.8906 88.5938C51.8906 81.6039 46.2242 75.9375 39.2344 75.9375C32.2445 75.9375 26.5781 81.6039 26.5781 88.5938C26.5781 95.5836 32.2445 101.25 39.2344 101.25Z" fill="#664E27"/>
<path d="M52.1436 50.372C44.0436 57.2064 33.1592 60.2439 22.528 58.2189C21.0092 57.9657 19.7436 63.2814 21.5155 63.7876C33.6655 66.0657 46.3217 62.522 55.6874 54.6751C56.953 53.4095 53.1561 49.3595 52.1436 50.372Z" fill="#917524"/>
<path d="M114.159 57.9657C103.528 59.7376 92.6435 56.9532 84.5435 50.1188C83.531 49.1063 79.481 53.1563 80.9997 54.4219C90.3654 62.5219 103.022 65.8126 115.172 63.5344C116.943 63.0282 115.678 57.7126 114.159 57.9657" fill="#917524"/>
<path d="M96.4404 119.728C81.7592 115.931 66.0654 118.715 53.6623 127.322C50.6248 129.6 56.4467 137.447 59.4842 135.422C67.5842 129.6 80.7467 125.803 94.1623 129.347C97.4529 130.106 100.237 120.994 96.4404 119.728" fill="#664E27"/>
</svg>
