<svg width="28" height="28" viewBox="0 0 28 28" fill="none" xmlns="http://www.w3.org/2000/svg">
<path d="M16.0563 12.6303C15.301 12.6303 14.6866 13.2448 14.6866 14C14.6866 14.7552 15.301 15.3696 16.0563 15.3696C16.8115 15.3696 17.4259 14.7552 17.4259 14C17.4259 13.2448 16.8115 12.6303 16.0563 12.6303Z" fill="white"/>
<path d="M16.9635 8.47861V10.9485C17.6669 11.1579 18.269 11.6041 18.677 12.1947L21.0262 11.4314C20.2273 9.89179 18.7338 8.7684 16.9635 8.47861Z" fill="white"/>
<path d="M21.5882 13.1564L19.2383 13.92C19.2389 13.9467 19.2404 13.9732 19.2404 14C19.2404 14.7272 18.9948 15.3977 18.583 15.9343L20.0339 17.9312C21.0335 16.9199 21.6517 15.5309 21.6517 14C21.6517 13.7133 21.6299 13.4316 21.5882 13.1564Z" fill="white"/>
<path d="M16.0563 2.05626H5.01972C4.51873 2.05626 4.11256 2.46242 4.11256 2.96342C4.11256 3.46441 4.51873 3.87058 5.01972 3.87058H9.73521C8.74034 4.49363 7.8433 5.25882 7.07302 6.13792H0.907158C0.406165 6.13798 0 6.5442 0 7.04519C0 7.54618 0.406165 7.95235 0.907158 7.95235H5.76068C4.71407 9.72729 4.11251 11.7946 4.11251 14C4.11251 16.5661 4.92621 18.9458 6.30882 20.8948H3.73489C3.2339 20.8948 2.82773 21.301 2.82773 21.802C2.82773 22.303 3.2339 22.7091 3.73489 22.7091H7.89219C8.45782 23.2397 9.07497 23.7158 9.73521 24.1293H1.00073C0.499735 24.1293 0.0935705 24.5355 0.0935705 25.0365C0.0935705 25.5375 0.499735 25.9436 1.00073 25.9436H16.0563C22.6421 25.9436 28 20.5857 28 13.9999C28 7.41417 22.6421 2.05626 16.0563 2.05626ZM20.4629 19.9533C20.4462 19.9674 20.4296 19.9816 20.4117 19.9946C20.3914 20.0093 20.3707 20.023 20.3498 20.0358C19.1377 20.9005 17.6553 21.4097 16.0563 21.4097C14.4572 21.4097 12.975 20.9005 11.7628 20.0358C11.7418 20.023 11.7211 20.0093 11.7009 19.9946C11.683 19.9815 11.6664 19.9673 11.6497 19.9533C9.82884 18.6019 8.64649 16.4365 8.64649 14C8.64649 9.91421 11.9705 6.59019 16.0563 6.59019C20.142 6.59019 23.4661 9.91421 23.4661 14C23.4661 16.4366 22.2838 18.6019 20.4629 19.9533Z" fill="white"/>
<path d="M11.0864 11.4313L13.4355 12.1946C13.8436 11.6041 14.4457 11.1579 15.1491 10.9484V8.47853C13.3788 8.76838 11.8854 9.89171 11.0864 11.4313Z" fill="white"/>
<path d="M17.1161 17.002C16.7843 17.1195 16.4278 17.1841 16.0563 17.1841C15.6848 17.1841 15.3282 17.1195 14.9965 17.002L13.5453 18.9993C14.3009 19.3804 15.1539 19.5954 16.0563 19.5954C16.9587 19.5954 17.8117 19.3804 18.5673 18.9993L17.1161 17.002Z" fill="white"/>
<path d="M12.8723 14C12.8723 13.9732 12.8736 13.9467 12.8742 13.92L10.5243 13.1564C10.4826 13.4316 10.4608 13.7133 10.4608 14C10.4608 15.5309 11.079 16.92 12.0787 17.9313L13.5295 15.9343C13.1178 15.3977 12.8723 14.7272 12.8723 14Z" fill="white"/>
</svg>
