<svg width="425" height="88" viewBox="0 0 425 88" fill="none" xmlns="http://www.w3.org/2000/svg">
<circle cx="397.5" cy="27.5" r="27.5" fill="#007788"/>
<path d="M417.317 24.2C417.06 23.7625 414.531 22.6434 414.531 22.6434C414.971 22.4106 415.272 22.3625 415.272 21.4C415.272 20.35 415.267 20 414.583 20H412.265C412.256 19.979 412.245 19.9571 412.236 19.9352C410.74 16.5875 410.539 15.7414 408.307 14.6021C405.313 13.077 399.7 13 397.5 13C395.3 13 389.687 13.077 386.696 14.6021C384.461 15.7396 384.517 16.325 382.766 19.9352C382.766 19.9449 382.749 19.9702 382.732 20H380.412C379.733 20 379.728 20.35 379.728 21.4C379.728 22.3625 380.029 22.4106 380.469 22.6434C380.469 22.6434 378.025 23.85 377.683 24.2C377.342 24.55 377 27 377 31.2C377 35.4 377.342 39.6 377.342 39.6H378.362C378.362 40.825 378.538 41 379.05 41H385.883C386.396 41 386.567 40.825 386.567 39.6H408.433C408.433 40.825 408.604 41 409.117 41H416.121C416.463 41 416.633 40.7375 416.633 39.6H417.658C417.658 39.6 418 35.3125 418 31.2C418 27.0875 417.573 24.6375 417.317 24.2ZM386.333 28.1322C384.777 28.3065 383.213 28.3958 381.648 28.4C379.904 28.4 379.844 28.5146 379.721 27.399C379.675 26.8884 379.69 26.3739 379.765 25.8669L379.819 25.6H380.075C381.1 25.6 382.063 25.6446 383.88 26.1932C384.805 26.4774 385.674 26.9232 386.45 27.511C386.823 27.7875 386.908 28.05 386.908 28.05L386.333 28.1322ZM407.444 34.4322L407.067 35.4H387.933C387.933 35.4 387.967 35.3466 387.506 34.4218C387.165 33.7375 387.592 33.3 388.267 33.0515C389.576 32.5685 393.4 31.2 397.5 31.2C401.6 31.2 405.5 32.3795 406.768 33.0515C407.237 33.3 407.821 33.475 407.444 34.4375V34.4322ZM385.492 22.4859C385.216 22.5022 384.94 22.5042 384.664 22.492C384.887 22.086 385.01 21.6336 385.228 21.1611C385.912 19.6736 386.693 17.9901 388.085 17.2805C390.095 16.255 394.263 15.793 397.5 15.793C400.737 15.793 404.905 16.2515 406.915 17.2805C408.307 17.9901 409.085 19.6745 409.772 21.1611C409.991 21.638 410.113 22.0939 410.342 22.5025C410.172 22.5121 409.975 22.5025 409.506 22.4859H385.492ZM415.193 27.3955C415.01 28.4875 415.181 28.4 413.352 28.4C411.787 28.3958 410.223 28.3065 408.667 28.1322C408.424 28.0876 408.355 27.6667 408.549 27.511C409.322 26.9167 410.192 26.4703 411.12 26.1932C412.937 25.6446 413.961 25.5711 414.971 25.6079C415.039 25.6105 415.104 25.6388 415.152 25.6873C415.201 25.7357 415.23 25.801 415.235 25.8704C415.283 26.3797 415.269 26.8932 415.193 27.399V27.3955Z" fill="white"/>
<g filter="url(#filter0_d)">
<path d="M325.339 14.5651C325.339 14.5651 374.584 12.4214 342.047 37.4309C309.51 62.4405 182 61.726 182 61.726" stroke="white" stroke-width="5"/>
</g>
<g filter="url(#filter1_d)">
<path d="M339.409 15.2337C339.409 15.2337 383.988 15.7431 353.479 42.387C322.97 69.0309 199.588 70.9694 199.588 70.9694" stroke="white" stroke-width="4"/>
</g>
<g filter="url(#filter2_d)">
<path d="M9.25 17.3125H35.2188L34.2578 21.9766H22.4922L21.5547 26.5938L33.3203 26.6172L32.3828 31.375H20.6875L19.2812 38.3828C18.6719 41.4922 16.0078 43.0469 11.2891 43.0469L4.25781 42.9766L5.21875 38.1953L7.53906 38.2188C9.05469 38.25 9.96094 37.5469 10.2578 36.1094L11.1953 31.4688L6.55469 31.4219L7.49219 26.6875H12.0156L13.0938 22H8.38281L9.25 17.3125ZM39.5078 14.8516H49L48.5312 17.1484L57.8125 17.1719C62.4062 17.1875 64.3828 18.7578 63.7422 21.8828L59.5234 42.9531L50.5703 42.9297L51.9531 35.9219L47.0312 35.9453L47.9922 31.1875L52.8672 31.1641L54.7422 21.8125L47.5703 21.7891L44.0781 39.1797H34.6562L39.5078 14.8516ZM68.4531 21.9531C69.1094 18.8281 71.75 17.2656 76.375 17.2656H92.7578L91.8672 21.9531H77.875L76.9844 26.5L83.7109 27.7656C88.1953 28.5938 90.2812 29.7656 89.9688 31.2812L88.5391 38.4297C87.9141 41.4609 85.3125 42.9844 80.7344 43H64.2344L65.125 38.3359H79.1875L80.1484 33.7891L73.3516 32.5C68.8359 31.6562 66.7266 30.5078 67.0234 29.0547L68.4531 21.9531ZM95.2422 17.3359L118.797 17.2656L117.672 22.0469L110.641 22.0234L109.727 26.5703H116.711L115.82 31.3516L108.789 31.3047L106.445 43H97.1172L99.4609 31.3516H92.4297L93.3906 26.5703H100.375L101.336 21.9531H94.3047L95.2422 17.3359ZM136.703 17.3125H155.383C159.992 17.2969 161.984 18.8359 161.359 21.9297L159.484 31.3281C158.859 34.3438 156.234 35.8984 151.609 35.9922H144.672L145.539 31.3047L150.227 31.3516L152.195 21.9062H135.719L136.703 17.3125ZM135.18 24.2969H144.602L140.852 43L131.477 43.0469L135.18 24.2969ZM166.773 14.8516H176.266L175.797 17.1484L185.078 17.1719C189.672 17.1875 191.648 18.7578 191.008 21.8828L186.789 42.9531L177.836 42.9297L179.219 35.9219L174.297 35.9453L175.258 31.1875L180.133 31.1641L182.008 21.8125L174.836 21.7891L171.344 39.1797H161.922L166.773 14.8516ZM196.281 17.2188H221.969L219.391 30.2031C218.922 32.4219 217.125 33.5234 214 33.5078L217 43L207.555 42.9766L204.578 33.6953L202.398 33.6719L200.5 42.9766H191.125L194.852 24.1562L204.32 24.1797L203.43 28.8438H210.414L211.844 21.8359L195.344 21.8594L196.281 17.2188ZM227.008 14.9688H236.266L234.367 24.3672L241.094 17.3125H250.562L239.359 29.7344L247.609 47.7344H238.609L232.234 35.3594L230.711 43.0234H221.336L227.008 14.9688ZM253.727 17.2188H263.125L257.969 42.9766H248.57L253.727 17.2188ZM269.266 14.7578H278.734L285.133 29.0078L287.43 17.2188L296.945 17.1719L292.727 38.2891C291.992 41.4766 289.32 43.0391 284.711 42.9766H281.195L275.945 28.3047L272.945 43L263.547 43.0234L269.266 14.7578ZM301.867 14.8984L311.148 14.8281L310.68 17.3359L324.672 17.3594L323.734 22.0469H309.742L306.484 38.4531L311.805 38.4062L311.898 24.6719H324.133L323.266 29.0781H321.273L321.297 36.0625C321.312 40.7031 319.164 43.0234 314.852 43.0234H296.172L300.367 22L297.977 21.9766L298.891 17.3359H301.305L301.867 14.8984Z" fill="white"/>
</g>
<defs>
<filter id="filter0_d" x="177.987" y="12.0192" width="181.676" height="60.2089" filterUnits="userSpaceOnUse" color-interpolation-filters="sRGB">
<feFlood flood-opacity="0" result="BackgroundImageFix"/>
<feColorMatrix in="SourceAlpha" type="matrix" values="0 0 0 0 0 0 0 0 0 0 0 0 0 0 0 0 0 0 127 0"/>
<feOffset dy="4"/>
<feGaussianBlur stdDeviation="2"/>
<feColorMatrix type="matrix" values="0 0 0 0 0 0 0 0 0 0 0 0 0 0 0 0 0 0 0.25 0"/>
<feBlend mode="normal" in2="BackgroundImageFix" result="effect1_dropShadow"/>
<feBlend mode="normal" in="SourceGraphic" in2="effect1_dropShadow" result="shape"/>
</filter>
<filter id="filter1_d" x="195.504" y="13.2373" width="174.654" height="67.7283" filterUnits="userSpaceOnUse" color-interpolation-filters="sRGB">
<feFlood flood-opacity="0" result="BackgroundImageFix"/>
<feColorMatrix in="SourceAlpha" type="matrix" values="0 0 0 0 0 0 0 0 0 0 0 0 0 0 0 0 0 0 127 0"/>
<feOffset dy="4"/>
<feGaussianBlur stdDeviation="2"/>
<feColorMatrix type="matrix" values="0 0 0 0 0 0 0 0 0 0 0 0 0 0 0 0 0 0 0.25 0"/>
<feBlend mode="normal" in2="BackgroundImageFix" result="effect1_dropShadow"/>
<feBlend mode="normal" in="SourceGraphic" in2="effect1_dropShadow" result="shape"/>
</filter>
<filter id="filter2_d" x="0.257812" y="14.7578" width="328.414" height="40.9766" filterUnits="userSpaceOnUse" color-interpolation-filters="sRGB">
<feFlood flood-opacity="0" result="BackgroundImageFix"/>
<feColorMatrix in="SourceAlpha" type="matrix" values="0 0 0 0 0 0 0 0 0 0 0 0 0 0 0 0 0 0 127 0"/>
<feOffset dy="4"/>
<feGaussianBlur stdDeviation="2"/>
<feColorMatrix type="matrix" values="0 0 0 0 0 0 0 0 0 0 0 0 0 0 0 0 0 0 0.25 0"/>
<feBlend mode="normal" in2="BackgroundImageFix" result="effect1_dropShadow"/>
<feBlend mode="normal" in="SourceGraphic" in2="effect1_dropShadow" result="shape"/>
</filter>
</defs>
</svg>
