<svg width="140" height="64" viewBox="0 0 140 64" fill="none" xmlns="http://www.w3.org/2000/svg">
<circle cx="35" cy="10" r="8" fill="#007788"/>
<path d="M40.4375 9.25C40.3672 9.13281 39.6732 8.83305 39.6732 8.83305C39.7939 8.7707 39.8764 8.75781 39.8764 8.5C39.8764 8.21875 39.875 8.125 39.6875 8.125H39.0514C39.0488 8.11937 39.046 8.11352 39.0434 8.10766C38.6328 7.21094 38.5777 6.9843 37.9653 6.67914C37.1438 6.27062 35.6038 6.25 35 6.25C34.3962 6.25 32.8562 6.27062 32.0354 6.67914C31.4223 6.98383 31.4375 7.14062 30.9573 8.10766C30.9573 8.11023 30.9523 8.11703 30.9479 8.125H30.3111C30.125 8.125 30.1236 8.21875 30.1236 8.5C30.1236 8.75781 30.2061 8.7707 30.3268 8.83305C30.3268 8.83305 29.6562 9.15625 29.5625 9.25C29.4688 9.34375 29.375 10 29.375 11.125C29.375 12.25 29.4688 13.375 29.4688 13.375H29.7486C29.7486 13.7031 29.7969 13.75 29.9375 13.75H31.8125C31.9531 13.75 32 13.7031 32 13.375H38C38 13.7031 38.0469 13.75 38.1875 13.75H40.1094C40.2031 13.75 40.25 13.6797 40.25 13.375H40.5312C40.5312 13.375 40.625 12.2266 40.625 11.125C40.625 10.0234 40.5078 9.36719 40.4375 9.25ZM31.9358 10.3033C31.5089 10.3499 31.0799 10.3739 30.6505 10.375C30.1719 10.375 30.1555 10.4057 30.1217 10.1069C30.109 9.9701 30.113 9.83229 30.1337 9.69648L30.1484 9.625H30.2188C30.5 9.625 30.7641 9.63695 31.2629 9.78391C31.5166 9.86002 31.7552 9.97944 31.9681 10.1369C32.0703 10.2109 32.0938 10.2812 32.0938 10.2812L31.9358 10.3033ZM37.7286 11.9908L37.625 12.25H32.375C32.375 12.25 32.3841 12.2357 32.2578 11.988C32.1641 11.8047 32.2812 11.6875 32.4666 11.6209C32.8257 11.4916 33.875 11.125 35 11.125C36.125 11.125 37.1952 11.4409 37.543 11.6209C37.6719 11.6875 37.832 11.7344 37.7286 11.9922V11.9908ZM31.7052 8.79086C31.6295 8.79523 31.5536 8.79578 31.4778 8.7925C31.539 8.68375 31.573 8.56258 31.6327 8.43602C31.8202 8.03758 32.0347 7.58664 32.4165 7.39656C32.9682 7.12187 34.1117 6.99812 35 6.99812C35.8883 6.99812 37.0318 7.12094 37.5835 7.39656C37.9653 7.58664 38.1788 8.03781 38.3673 8.43602C38.4275 8.56375 38.461 8.68586 38.5238 8.79531C38.477 8.79789 38.423 8.79531 38.2944 8.79086H31.7052ZM39.8548 10.1059C39.8047 10.3984 39.8516 10.375 39.3495 10.375C38.9201 10.3739 38.4911 10.3499 38.0642 10.3033C37.9974 10.2913 37.9784 10.1786 38.0319 10.1369C38.2438 9.97769 38.4827 9.85811 38.7371 9.78391C39.2359 9.63695 39.5166 9.61727 39.7939 9.62711C39.8125 9.62782 39.8302 9.63539 39.8436 9.64838C39.857 9.66136 39.8651 9.67883 39.8663 9.69742C39.8796 9.83385 39.8757 9.9714 39.8548 10.1069V10.1059Z" fill="white"/>
<g filter="url(#filter0_d)">
<path d="M111.5 14.0321C111.5 14.0321 139.5 12.5321 121 30.0321C102.5 47.5321 30 47.0321 30 47.0321" stroke="white" stroke-width="5"/>
</g>
<g filter="url(#filter1_d)">
<path d="M119.5 14.5C119.5 14.5 144.847 14.8564 127.5 33.5C110.153 52.1436 40 53.5 40 53.5" stroke="white" stroke-width="4"/>
</g>
<g filter="url(#filter2_d)">
<path d="M46.7031 4.15625H59.6875L59.207 6.48828H53.3242L52.8555 8.79688L58.7383 8.80859L58.2695 11.1875H52.4219L51.7188 14.6914C51.4141 16.2461 50.082 17.0234 47.7227 17.0234L44.207 16.9883L44.6875 14.5977L45.8477 14.6094C46.6055 14.625 47.0586 14.2734 47.207 13.5547L47.6758 11.2344L45.3555 11.2109L45.8242 8.84375H48.0859L48.625 6.5H46.2695L46.7031 4.15625ZM61.832 2.92578H66.5781L66.3438 4.07422L70.9844 4.08594C73.2812 4.09375 74.2695 4.87891 73.9492 6.44141L71.8398 16.9766L67.3633 16.9648L68.0547 13.4609L65.5938 13.4727L66.0742 11.0938L68.5117 11.082L69.4492 6.40625L65.8633 6.39453L64.1172 15.0898H59.4062L61.832 2.92578ZM76.3047 6.47656C76.6328 4.91406 77.9531 4.13281 80.2656 4.13281H88.457L88.0117 6.47656H81.0156L80.5703 8.75L83.9336 9.38281C86.1758 9.79688 87.2188 10.3828 87.0625 11.1406L86.3477 14.7148C86.0352 16.2305 84.7344 16.9922 82.4453 17H74.1953L74.6406 14.668H81.6719L82.1523 12.3945L78.7539 11.75C76.4961 11.3281 75.4414 10.7539 75.5898 10.0273L76.3047 6.47656ZM89.6992 4.16797L101.477 4.13281L100.914 6.52344L97.3984 6.51172L96.9414 8.78516H100.434L99.9883 11.1758L96.4727 11.1523L95.3008 17H90.6367L91.8086 11.1758H88.293L88.7734 8.78516H92.2656L92.7461 6.47656H89.2305L89.6992 4.16797ZM6.71875 21.1562H16.0586C18.3633 21.1484 19.3594 21.918 19.0469 23.4648L18.1094 28.1641C17.7969 29.6719 16.4844 30.4492 14.1719 30.4961H10.7031L11.1367 28.1523L13.4805 28.1758L14.4648 23.4531H6.22656L6.71875 21.1562ZM5.95703 24.6484H10.668L8.79297 34L4.10547 34.0234L5.95703 24.6484ZM21.7539 19.9258H26.5L26.2656 21.0742L30.9062 21.0859C33.2031 21.0938 34.1914 21.8789 33.8711 23.4414L31.7617 33.9766L27.2852 33.9648L27.9766 30.4609L25.5156 30.4727L25.9961 28.0938L28.4336 28.082L29.3711 23.4062L25.7852 23.3945L24.0391 32.0898H19.3281L21.7539 19.9258ZM36.5078 21.1094H49.3516L48.0625 27.6016C47.8281 28.7109 46.9297 29.2617 45.3672 29.2539L46.8672 34L42.1445 33.9883L40.6562 29.3477L39.5664 29.3359L38.6172 33.9883H33.9297L35.793 24.5781L40.5273 24.5898L40.082 26.9219H43.5742L44.2891 23.418L36.0391 23.4297L36.5078 21.1094ZM51.8711 19.9844H56.5L55.5508 24.6836L58.9141 21.1562H63.6484L58.0469 27.3672L62.1719 36.3672H57.6719L54.4844 30.1797L53.7227 34.0117H49.0352L51.8711 19.9844ZM65.2305 21.1094H69.9297L67.3516 33.9883H62.6523L65.2305 21.1094ZM73 19.8789H77.7344L80.9336 27.0039L82.082 21.1094L86.8398 21.0859L84.7305 31.6445C84.3633 33.2383 83.0273 34.0195 80.7227 33.9883H78.9648L76.3398 26.6523L74.8398 34L70.1406 34.0117L73 19.8789ZM89.3008 19.9492L93.9414 19.9141L93.707 21.168L100.703 21.1797L100.234 23.5234H93.2383L91.6094 31.7266L94.2695 31.7031L94.3164 24.8359H100.434L100 27.0391H99.0039L99.0156 30.5312C99.0234 32.8516 97.9492 34.0117 95.793 34.0117H86.4531L88.5508 23.5L87.3555 23.4883L87.8125 21.168H89.0195L89.3008 19.9492Z" fill="white"/>
</g>
<defs>
<filter id="filter0_d" x="25.9838" y="11.5" width="107.837" height="46.0336" filterUnits="userSpaceOnUse" color-interpolation-filters="sRGB">
<feFlood flood-opacity="0" result="BackgroundImageFix"/>
<feColorMatrix in="SourceAlpha" type="matrix" values="0 0 0 0 0 0 0 0 0 0 0 0 0 0 0 0 0 0 127 0"/>
<feOffset dy="4"/>
<feGaussianBlur stdDeviation="2"/>
<feColorMatrix type="matrix" values="0 0 0 0 0 0 0 0 0 0 0 0 0 0 0 0 0 0 0.25 0"/>
<feBlend mode="normal" in2="BackgroundImageFix" result="effect1_dropShadow"/>
<feBlend mode="normal" in="SourceGraphic" in2="effect1_dropShadow" result="shape"/>
</filter>
<filter id="filter1_d" x="35.9616" y="12.5002" width="103.609" height="50.9994" filterUnits="userSpaceOnUse" color-interpolation-filters="sRGB">
<feFlood flood-opacity="0" result="BackgroundImageFix"/>
<feColorMatrix in="SourceAlpha" type="matrix" values="0 0 0 0 0 0 0 0 0 0 0 0 0 0 0 0 0 0 127 0"/>
<feOffset dy="4"/>
<feGaussianBlur stdDeviation="2"/>
<feColorMatrix type="matrix" values="0 0 0 0 0 0 0 0 0 0 0 0 0 0 0 0 0 0 0.25 0"/>
<feBlend mode="normal" in2="BackgroundImageFix" result="effect1_dropShadow"/>
<feBlend mode="normal" in="SourceGraphic" in2="effect1_dropShadow" result="shape"/>
</filter>
<filter id="filter2_d" x="0.105469" y="2.92578" width="105.371" height="41.4414" filterUnits="userSpaceOnUse" color-interpolation-filters="sRGB">
<feFlood flood-opacity="0" result="BackgroundImageFix"/>
<feColorMatrix in="SourceAlpha" type="matrix" values="0 0 0 0 0 0 0 0 0 0 0 0 0 0 0 0 0 0 127 0"/>
<feOffset dy="4"/>
<feGaussianBlur stdDeviation="2"/>
<feColorMatrix type="matrix" values="0 0 0 0 0 0 0 0 0 0 0 0 0 0 0 0 0 0 0.25 0"/>
<feBlend mode="normal" in2="BackgroundImageFix" result="effect1_dropShadow"/>
<feBlend mode="normal" in="SourceGraphic" in2="effect1_dropShadow" result="shape"/>
</filter>
</defs>
</svg>
