<svg width="106" height="135" viewBox="0 0 106 135" fill="none" xmlns="http://www.w3.org/2000/svg">
<path d="M71.4206 96.5C71.4206 128.256 45.677 154 13.9206 154C-17.8357 154 -43.5794 128.256 -43.5794 96.5C-43.5794 64.7436 -17.8357 39 13.9206 39C45.677 39 71.4206 64.7436 71.4206 96.5Z" fill="#005561"/>
<path d="M71.4206 96.5C71.4206 128.256 45.677 154 13.9206 154C-17.8357 154 -43.5794 128.256 -43.5794 96.5C-43.5794 64.7436 -17.8357 39 13.9206 39C45.677 39 71.4206 64.7436 71.4206 96.5Z" fill="#005561"/>
<circle cx="19.5" cy="15.5" r="15.5" fill="#005561"/>
<circle cx="19.5" cy="15.5" r="15.5" fill="#005561"/>
<circle cx="61.5" cy="31.5" r="15.5" fill="#005561"/>
<circle cx="61.5" cy="31.5" r="15.5" fill="#005561"/>
<circle cx="90.5" cy="71.5" r="15.5" fill="#005561"/>
<circle cx="90.5" cy="71.5" r="15.5" fill="#005561"/>
</svg>
