<svg width="320" height="555" viewBox="0 0 320 555" fill="none" xmlns="http://www.w3.org/2000/svg">
<path d="M12.0513 84.1583C13.2571 84.0961 14.0365 84.7217 14.3893 86.035L15.7453 91.8317C15.9212 93.0427 15.4326 93.7734 14.2795 94.0238L9.59408 95.1393L8.03284 93.439L9.26504 98.6147C9.35767 99.8133 9.13725 100.625 8.60379 101.049C8.06852 101.465 7.14167 101.823 5.82324 102.12L5.09803 99.1249C5.676 99.1238 5.74116 98.3012 5.29351 96.657L3.85232 90.6036L5.39462 89.1884L2.71287 89.8148L2.61196 86.4056L12.0513 84.1583ZM6.84243 88.8437L7.55407 91.7822L11.8774 90.7649L11.1745 87.8123L6.84243 88.8437ZM32.1757 78.1144L35.2325 78.5069L35.1625 79.68L39.6769 78.6053L40.0129 82.091L37.5532 82.6886L43.9577 92.2344L41.1836 93.991L34.6195 84.2303L32.6688 95.9218L29.3796 95.7171L31.295 84.1303L28.0661 84.887L27.5244 81.4985L31.788 80.4834L32.1757 78.1144ZM36.3919 89.3978L38.5921 90.8978L36.1366 94.9035L33.9305 93.429L36.3919 89.3978ZM53.0134 74.358L62.8403 72.0185C63.5518 71.9374 64.1326 72.269 64.5828 73.013L65.6511 77.6013C65.6822 78.7102 65.5322 79.4968 65.201 79.9611C64.8681 80.4178 64.2219 81.0094 63.2624 81.7357L64.505 82.9577C65.4235 83.8473 66.5136 84.2262 67.7752 84.0945L68.3489 87.6682L66.4321 87.7631C65.181 87.804 63.6226 86.858 61.757 84.925L60.7131 83.728L59.1241 84.9977L60.0817 89.0702L56.8951 89.853L56.1731 86.8206L54.2813 84.4401L55.328 83.3717L54.2081 78.5669L55.5637 77.3286L53.104 77.9263L53.0134 74.358ZM57.208 76.9492L58.2529 81.3382L61.3413 79.1815C62.0973 78.6803 62.3948 78.0915 62.2338 77.4151L61.8592 75.8418L57.208 76.9492ZM86.0014 66.1309L88.9231 67.9289L85.0746 74.2299C87.5135 76.9178 88.9831 78.2504 89.4837 78.2276C89.9918 78.203 90.5133 77.8298 91.0482 77.1082L93.0209 79.879C92.4042 80.9654 91.7287 81.6362 90.9944 81.8914C90.2695 82.1523 89.4982 82.2355 88.6807 82.141C87.8632 82.0466 85.9818 80.3342 83.0367 77.0038L82.5204 77.9218L83.8286 83.4167L80.5796 84.1902L76.8857 68.6746L80.1233 67.9038L81.4673 73.4986L86.0014 66.1309ZM101.83 62.7361L108.043 61.2569L108.368 64.6487L107.365 64.8875L109.523 73.9506L110.8 73.6466L111.374 76.8707L105.161 78.3499L104.707 75.0732L106.043 74.767L104.104 66.5193L105.347 65.3679L102.281 66.098L101.83 62.7361ZM120.626 58.2973L123.932 57.5102L124.506 59.9754L124.666 58.9255C126.21 58.9675 127.386 59.1494 128.193 59.4711C129.006 59.7835 129.916 60.3982 130.921 61.3153L131.189 61.7333L129.842 56.1271L133.126 55.3455L136.171 68.1364C136.363 68.7089 136.257 69.3928 135.852 70.1879C135.453 70.9736 134.376 71.5271 132.621 71.8484L131.853 68.6222C132.599 68.3804 132.801 67.8142 132.461 66.9236C132.345 66.405 132.098 65.8735 131.72 65.3292C131.347 64.7755 130.433 64.1418 128.978 63.428C127.529 62.7049 126.222 62.3216 125.055 62.2782L127.617 73.0399L124.299 73.8297L120.626 58.2973ZM146.655 52.1606L158.659 49.3027L158.903 52.8584L150.707 54.8099L152.43 62.049C152.592 63.1025 153.272 63.4105 154.469 62.9729L158.55 62.0013L157.901 59.325L155.168 59.9878L154.397 56.7501L160.499 55.3095L162.716 64.6234L162.916 65.5153L159.762 66.9408L159.116 64.2276L158.133 65.7145L153.245 66.8902C152.105 66.993 151.215 66.7631 150.576 66.2007C149.934 65.6307 149.457 64.7082 149.146 63.4332L147.525 56.6273L149.293 55.1464L146.309 55.8689L146.655 52.1606ZM189.846 41.7573L200.825 39.1436L200.732 42.8036L195.197 44.1454L195.602 45.844L201.678 44.3974L201.869 47.6285L196.257 48.9525C196.534 50.6212 196.892 51.6845 197.33 52.1423C197.774 52.5908 198.366 52.731 199.105 52.5631L203.277 51.5697L203.487 54.929C200.153 55.8029 198.183 56.1635 197.576 56.0108C196.976 55.8486 196.305 55.5104 195.564 54.9961C194.829 54.4724 194.234 53.5903 193.778 52.3497L193.145 49.6934L191.267 50.1526L190.991 46.9177L192.532 46.5627L192.109 44.7843L190.105 45.2734L189.846 41.7573ZM215.833 35.3899L222.759 46.0643C223.882 44.6083 224.488 43.1589 224.578 41.716C224.669 40.2731 224.475 38.7692 223.998 37.2043L222.337 37.6119L221.907 34.1365L226.518 33.0145C227.371 34.6746 227.881 36.4966 228.048 38.4806C228.214 40.457 228.129 42.1596 227.795 43.5884C227.459 45.0096 226.834 46.636 225.921 48.4676L224.13 48.2314L225.424 50.2243L222.259 52.3631L212.687 37.1026L215.833 35.3899ZM239.757 29.8747L250.735 27.2611L250.643 30.921L245.108 32.2629L245.512 33.9615L251.589 32.5149L251.78 35.746L246.168 37.0699C246.445 38.7387 246.802 39.802 247.241 40.2598C247.685 40.7082 248.276 40.8485 249.015 40.6806L253.188 39.6872L253.397 43.0464C250.064 43.9204 248.094 44.281 247.487 44.1282C246.886 43.9661 246.216 43.6279 245.475 43.1136C244.74 42.5899 244.144 41.7077 243.688 40.4671L243.056 37.8109L241.177 38.2701L240.901 35.0352L242.443 34.6802L242.02 32.9018L240.016 33.3909L239.757 29.8747ZM263.635 24.2141L273.462 21.8746C274.173 21.7935 274.754 22.125 275.204 22.8691L276.272 27.4574C276.304 28.5663 276.154 29.3529 275.822 29.8172C275.489 30.2739 274.843 30.8655 273.884 31.5918L275.126 32.8138C276.045 33.7034 277.135 34.0823 278.397 33.9506L278.97 37.5243L277.053 37.6192C275.802 37.6601 274.244 36.714 272.378 34.7811L271.334 33.584L269.745 34.8538L270.703 38.9263L267.516 39.7091L266.794 36.6766L264.903 34.2962L265.949 33.2278L264.829 28.4229L266.185 27.1847L263.725 27.7823L263.635 24.2141ZM267.829 26.8053L268.874 31.1943L271.963 29.0376C272.719 28.5364 273.016 27.9475 272.855 27.2711L272.481 25.6979L267.829 26.8053ZM289.43 18.1089L295.784 25.5707C296.385 24.5845 296.679 23.3902 296.666 21.9878C296.659 20.576 296.358 18.9411 295.763 17.083L298.962 16.4539C299.883 20.491 300.121 23.41 299.674 25.2108C299.233 27.0022 298.561 28.6802 297.656 30.2447C296.757 31.7998 295.589 33.3187 294.151 34.8014L292.029 31.9096L294.389 28.818L287.456 20.7955L289.43 18.1089ZM313.732 12.2029L317.883 21.1407C318.624 20.1371 318.968 19.2039 318.915 18.3411C318.861 17.4708 318.451 16.3235 317.686 14.8994L316.364 15.2142L316.079 11.7405L320.015 10.8155L324.1 19.3716C324.579 18.8881 324.837 18.1359 324.875 17.1149C324.912 16.0864 324.545 14.8326 323.775 13.3534L322.544 13.6466L322.326 10.2531L325.92 9.40959C327.52 13.0602 328.317 15.5487 328.312 16.8751C328.314 18.1996 328.189 19.2935 327.936 20.1566C327.692 21.018 327.23 21.9271 326.55 22.8839L325.489 22.4741L327.102 25.8605L324.135 27.8196L321.205 21.7352C321.129 22.7974 320.818 23.6703 320.274 24.3539L319.435 24.1682L320.866 27.3451L318.134 29.4291L310.601 13.7793L313.732 12.2029ZM338.888 6.34636L342.331 5.5267L343.59 10.8164L348.598 9.58795L347.357 4.3781L350.795 3.53564L352.073 8.9051L352.666 8.76396L353.686 11.8339L352.82 12.0401L354.014 17.0562C353.949 17.7945 353.772 18.3183 353.484 18.6278C353.195 18.9296 352.7 19.2281 351.999 19.5234C351.304 19.8093 350.592 20.0391 349.862 20.2128L349.123 17.2086C349.812 16.9966 350.176 16.6046 350.217 16.0328L349.459 12.8522L345.273 13.8369L344.016 12.6062L345.957 20.7573L342.675 22.1529L338.888 6.34636ZM364.26 0.233548L375.238 -2.38013L375.146 1.27984L369.611 2.62169L370.015 4.32031L376.092 2.87369L376.283 6.1048L370.671 7.42874C370.948 9.0975 371.305 10.1608 371.744 10.6186C372.188 11.067 372.779 11.2073 373.518 11.0394L377.691 10.046L377.9 13.4052C374.567 14.2792 372.597 14.6398 371.99 14.487C371.389 14.3249 370.719 13.9867 369.978 13.4724C369.243 12.9487 368.647 12.0665 368.191 10.8259L367.559 8.16969L365.681 8.62891L365.404 5.394L366.946 5.039L366.523 3.26058L364.519 3.74966L364.26 0.233548ZM388.138 -5.42708L397.965 -7.76663C398.676 -7.84768 399.257 -7.51617 399.707 -6.77208L400.775 -2.1838C400.807 -1.07492 400.657 -0.288313 400.325 0.176008C399.992 0.632728 399.346 1.22425 398.387 1.95058L399.629 3.17259C400.548 4.06217 401.638 4.44111 402.9 4.30939L403.473 7.88306L401.556 7.97802C400.305 8.0189 398.747 7.07284 396.881 5.13986L395.837 3.94284L394.249 5.21256L395.206 9.28512L392.019 10.0679L391.297 7.03543L389.406 4.65495L390.452 3.58662L389.332 -1.21826L390.688 -2.4565L388.228 -1.85885L388.138 -5.42708ZM392.332 -2.83593L393.377 1.55312L396.466 -0.60361C397.222 -1.10484 397.519 -1.69366 397.358 -2.37006L396.984 -3.94328L392.332 -2.83593ZM412.62 -11.2799L423.599 -13.8935L423.506 -10.2336L417.971 -8.89172L418.376 -7.19311L424.452 -8.63972L424.643 -5.40861L419.031 -4.08467C419.308 -2.41592 419.666 -1.35263 420.104 -0.894805C420.548 -0.446394 421.139 -0.306145 421.878 -0.474056L426.051 -1.46742L426.26 1.89181C422.927 2.76575 420.957 3.12636 420.35 2.97362C419.75 2.81148 419.079 2.47326 418.338 1.95898C417.603 1.43529 417.007 0.553129 416.551 -0.687497L415.919 -3.34373L414.041 -2.8845L413.764 -6.11941L415.306 -6.47441L414.883 -8.25283L412.879 -7.76375L412.62 -11.2799Z" fill="black" fill-opacity="0.1"/>
<path d="M-11.8606 120.282C-10.6568 120.187 -9.86077 120.791 -9.47241 122.095L-7.95956 127.853C-7.75088 129.058 -8.21945 129.802 -9.36527 130.084L-14.0187 131.326L-15.6255 129.669L-14.2533 134.809C-14.1281 136.005 -14.3264 136.822 -14.8482 137.26C-15.3719 137.691 -16.2887 138.073 -17.5986 138.407L-18.4049 135.432C-17.8272 135.415 -17.7844 134.591 -18.2765 132.96L-19.8815 126.948L-18.3782 125.491L-21.0419 126.19L-21.2354 122.785L-11.8606 120.282ZM-16.9403 125.107L-16.1491 128.025L-11.855 126.891L-12.6378 123.959L-16.9403 125.107ZM8.09232 113.694L11.1587 114.004L11.1205 115.178L15.6041 113.981L16.0346 117.456L13.592 118.121L20.2533 127.489L17.528 129.32L10.7013 119.741L9.06877 131.482L5.77523 131.366L7.37536 119.732L4.16814 120.576L3.53463 117.203L7.76914 116.073L8.09232 113.694ZM12.6133 124.859L14.8534 126.299L12.5077 130.37L10.2623 128.956L12.6133 124.859ZM28.8203 109.373L38.5801 106.768C39.2892 106.668 39.8788 106.983 40.349 107.715L41.5415 112.272C41.6027 113.38 41.4741 114.17 41.1556 114.644C40.8352 115.109 40.2053 115.718 39.2659 116.47L40.5413 117.658C41.4836 118.522 42.5835 118.871 43.8411 118.706L44.5116 122.262L42.5981 122.409C41.3485 122.484 39.7651 121.581 37.8477 119.699L36.7717 118.531L35.2178 119.843L36.2855 123.888L33.1213 124.757L32.3173 121.746L30.3615 119.417L31.3788 118.321L30.1289 113.548L31.4504 112.274L29.0078 112.938L28.8203 109.373ZM33.0838 111.85L34.2475 116.209L37.2762 113.969C38.0183 113.447 38.2997 112.851 38.1204 112.179L37.7033 110.617L33.0838 111.85ZM61.5729 100.254L64.5423 101.972L60.8663 108.375C63.3772 110.996 64.8825 112.288 65.3823 112.251C65.8895 112.213 66.4007 111.826 66.9158 111.09L68.963 113.806C68.3761 114.909 67.719 115.598 66.9919 115.873C66.2743 116.153 65.5057 116.257 64.6858 116.185C63.866 116.113 61.9389 114.452 58.9044 111.203L58.4133 112.135L59.8702 117.592L56.6433 118.454L52.5295 103.044L55.7451 102.186L57.2405 107.742L61.5729 100.254ZM77.303 96.4303L83.4736 94.783L83.8913 98.1647L82.8949 98.4307L85.2979 107.432L86.566 107.093L87.2281 110.301L81.0575 111.948L80.5139 108.685L81.8416 108.342L79.6789 100.15L80.8909 98.9657L77.8452 99.7788L77.303 96.4303ZM95.9716 91.4829L99.255 90.6063L99.8966 93.055L100.028 92.0011C101.572 92.0012 102.752 92.1511 103.568 92.4508C104.39 92.741 105.315 93.3308 106.345 94.2202L106.624 94.6308L105.126 89.0633L108.387 88.1928L111.778 100.896C111.986 101.463 111.899 102.15 111.515 102.956C111.138 103.752 110.076 104.334 108.331 104.703L107.476 101.499C108.214 101.237 108.401 100.666 108.037 99.7847C107.907 99.2694 107.646 98.7448 107.253 98.211C106.865 97.6676 105.934 97.0589 104.461 96.385C102.993 95.7014 101.675 95.3538 100.507 95.3421L103.361 106.03L100.066 106.91L95.9716 91.4829ZM121.824 84.6418L133.747 81.459L134.087 85.0068L125.947 87.18L127.866 94.3696C128.057 95.4184 128.745 95.7078 129.929 95.2379L133.983 94.1558L133.261 91.4981L130.547 92.2349L129.688 89.0194L135.749 87.4136L138.218 96.6638L138.443 97.55L135.329 99.0606L134.609 96.3659L133.667 97.8789L128.813 99.187C127.676 99.3206 126.78 99.1151 126.125 98.5702C125.468 98.0178 124.967 97.1086 124.621 95.8425L122.816 89.0832L124.543 87.5548L121.579 88.3581L121.824 84.6418ZM164.718 73.0696L175.621 70.1588L175.628 73.8199L170.132 75.3115L170.582 76.9986L176.617 75.3875L176.895 78.6122L171.322 80.088C171.644 81.7487 172.03 82.8019 172.481 83.2476C172.937 83.6838 173.532 83.8079 174.266 83.62L178.41 82.5137L178.711 85.866C175.402 86.8302 173.442 87.2441 172.832 87.1079C172.227 86.9621 171.547 86.6423 170.793 86.1483C170.044 85.6447 169.425 84.7791 168.935 83.5513L168.231 80.9132L166.366 81.4233L166.002 78.197L167.533 77.8003L167.062 76.034L165.072 76.5774L164.718 73.0696ZM190.522 65.999L197.735 76.4814C198.818 74.9955 199.385 73.5301 199.436 72.0853C199.487 70.6405 199.253 69.1423 198.733 67.591L197.083 68.0436L196.559 64.5812L201.139 63.3344C202.037 64.9707 202.596 66.7782 202.817 68.7569C203.036 70.728 202.998 72.4323 202.702 73.8697C202.404 75.2995 201.824 76.9422 200.961 78.7979L199.164 78.6105L200.512 80.5675L197.406 82.7914L187.423 67.7964L190.522 65.999ZM214.287 59.8363L225.191 56.9255L225.198 60.5866L219.701 62.0783L220.152 63.7653L226.186 62.1542L226.465 65.379L220.891 66.8548C221.213 68.5154 221.6 69.5686 222.05 70.0143C222.506 70.4505 223.101 70.5747 223.836 70.3867L227.98 69.2805L228.28 72.6328C224.972 73.5969 223.012 74.0109 222.402 73.8746C221.797 73.7289 221.117 73.409 220.362 72.915C219.613 72.4115 218.994 71.5458 218.505 70.318L217.8 67.6799L215.935 68.19L215.571 64.9638L217.103 64.567L216.631 62.8008L214.642 63.3441L214.287 59.8363ZM238.003 53.5295L247.762 50.924C248.471 50.8236 249.061 51.1392 249.531 51.8708L250.724 56.4284C250.785 57.536 250.656 58.3264 250.338 58.7996C250.017 59.2652 249.388 59.874 248.448 60.6261L249.724 61.8139C250.666 62.6783 251.766 63.0275 253.023 62.8615L253.694 66.4183L251.78 66.5653C250.531 66.6401 248.947 65.7367 247.03 63.8551L245.954 62.6869L244.4 63.9993L245.468 68.0443L242.304 68.9133L241.5 65.9016L239.544 63.5733L240.561 62.477L239.311 57.7043L240.633 56.4297L238.19 57.0939L238.003 53.5295ZM242.266 56.0058L243.43 60.3648L246.458 58.125C247.201 57.6035 247.482 57.0068 247.303 56.335L246.886 54.7725L242.266 56.0058ZM263.623 46.7261L270.177 54.0126C270.751 53.0105 271.012 51.8086 270.961 50.4071C270.916 48.996 270.571 47.3699 269.926 45.5287L273.107 44.8129C274.137 48.8235 274.453 51.735 274.056 53.5473C273.664 55.35 273.037 57.0456 272.175 58.6341C271.319 60.213 270.193 61.7631 268.795 63.2843L266.596 60.4511L268.871 57.2967L261.722 49.4653L263.623 46.7261ZM287.755 40.1625L292.148 48.9842C292.861 47.9609 293.18 47.0188 293.103 46.1577C293.025 45.2891 292.584 44.1534 291.781 42.7506L290.468 43.1012L290.089 39.6365L293.998 38.605L298.314 47.047C298.78 46.5507 299.018 45.7917 299.028 44.7701C299.036 43.741 298.635 42.4976 297.826 41.0399L296.603 41.3664L296.293 37.9801L299.863 37.0393C301.561 40.6451 302.426 43.111 302.456 44.4371C302.495 45.7611 302.399 46.8579 302.17 47.7276C301.949 48.5953 301.512 49.5166 300.859 50.4916L299.787 50.1107L301.491 53.452L298.579 55.491L295.484 49.4883C295.437 50.5522 295.15 51.4332 294.625 52.1314L293.781 51.9685L295.298 55.1054L292.623 57.2628L284.669 41.8233L287.755 40.1625ZM312.743 33.6251L316.162 32.7123L317.565 37.9658L322.537 36.6019L321.156 31.4276L324.569 30.4921L325.993 35.8249L326.582 35.6677L327.685 38.7088L326.824 38.9385L328.154 43.9203C328.109 44.6601 327.947 45.1885 327.668 45.5056C327.386 45.8152 326.9 46.1271 326.207 46.4413C325.52 46.746 324.815 46.995 324.09 47.1885L323.269 44.2055C323.952 43.9748 324.305 43.5731 324.33 43.0004L323.487 39.8415L319.329 40.9395L318.039 39.7434L320.2 47.8388L316.958 49.323L312.743 33.6251ZM337.94 26.8257L348.843 23.9149L348.85 27.576L343.354 29.0676L343.804 30.7546L349.839 29.1436L350.117 32.3683L344.544 33.8441C344.866 35.5048 345.252 36.5579 345.703 37.0037C346.159 37.4399 346.754 37.564 347.488 37.3761L351.632 36.2698L351.933 39.6221C348.624 40.5863 346.664 41.0002 346.054 40.864C345.449 40.7182 344.769 40.3984 344.015 39.9044C343.266 39.4008 342.647 38.5352 342.157 37.3074L341.453 34.6693L339.588 35.1794L339.224 31.9531L340.755 31.5564L340.284 29.7901L338.294 30.3334L337.94 26.8257ZM361.655 20.5188L371.415 17.9133C372.124 17.813 372.713 18.1286 373.184 18.8602L374.376 23.4178C374.437 24.5254 374.309 25.3158 373.99 25.7889C373.67 26.2545 373.04 26.8634 372.101 27.6155L373.376 28.8033C374.318 29.6676 375.418 30.0168 376.676 29.8509L377.346 33.4077L375.433 33.5546C374.183 33.6295 372.6 32.7261 370.682 30.8445L369.606 29.6762L368.052 30.9886L369.12 35.0337L365.956 35.9027L365.152 32.8909L363.196 30.5627L364.213 29.4664L362.964 24.6936L364.285 23.4191L361.842 24.0833L361.655 20.5188ZM365.918 22.9951L367.082 27.3542L370.111 25.1144C370.853 24.5928 371.134 23.9962 370.955 23.3244L370.538 21.7619L365.918 22.9951ZM385.969 14.0035L396.873 11.0927L396.88 14.7538L391.383 16.2454L391.834 17.9325L397.868 16.3214L398.147 19.5461L392.574 21.0219C392.896 22.6826 393.282 23.7358 393.732 24.1815C394.188 24.6177 394.784 24.7418 395.518 24.5539L399.662 23.4476L399.962 26.7999C396.654 27.7641 394.694 28.178 394.084 28.0418C393.479 27.8961 392.799 27.5762 392.045 27.0822C391.296 26.5787 390.676 25.713 390.187 24.4852L389.483 21.8471L387.617 22.3572L387.253 19.131L388.785 18.7342L388.313 16.968L386.324 17.5113L385.969 14.0035Z" fill="black" fill-opacity="0.1"/>
<path d="M2.6846 384.758L12.7727 382.065L12.9156 385.508L7.68471 386.904L8.6769 390.666L8.67342 389.017L13.078 388.751L13.3417 392.283L9.14468 392.555L10.7822 398.643L7.57593 400.263L4.45659 388.578L5.8958 387.382L2.99731 388.155L2.6846 384.758ZM30.8469 376.027L33.9133 376.336L33.8751 377.511L38.3587 376.314L38.7892 379.789L36.3466 380.453L43.0079 389.821L40.2826 391.653L33.4559 382.074L31.8233 393.814L28.5298 393.699L30.1299 382.064L26.9227 382.908L26.2892 379.536L30.5237 378.405L30.8469 376.027ZM35.3679 387.191L37.608 388.631L35.2622 392.702L33.0168 391.288L35.3679 387.191ZM51.4103 371.726L59.8084 369.471C60.7822 369.454 61.507 369.806 61.9827 370.528C62.466 371.248 62.7873 371.907 62.9465 372.503L60.1372 373.884C59.9478 373.174 59.1992 373.05 57.8914 373.513L55.559 374.135L64.5426 379.209C65.2524 379.747 65.6256 380.872 65.6623 382.585C65.5438 383.716 64.7291 384.556 63.218 385.105L57.4972 386.62C56.7745 386.579 56.1381 386.3 55.5879 385.784C55.0357 385.26 54.531 384.566 54.0738 383.702L56.895 381.82C57.2078 382.659 57.6658 382.981 58.2691 382.788L61.2952 381.992C61.7274 381.763 61.5633 381.452 60.8028 381.056L52.4503 376.348L53.7361 374.622L51.6529 375.178L51.4103 371.726Z" fill="black" fill-opacity="0.1"/>
<path d="M3.25589 418.983L14.4536 415.994L15.315 419.221L8.85306 420.958L9.33365 422.758L14.4543 421.403L14.9232 424.614L10.1679 425.883L11.2349 429.88L17.6868 427.333L19.5507 430.498L8.14891 435.131L6.87377 431.808L8.14934 431.225L6.95843 426.764L5.55447 427.139L5.09468 424.145L6.20124 423.837L5.83929 422.527L7.48383 421.372L4.13548 422.278L3.25589 418.983ZM33.2961 409.654L36.3625 409.963L36.3243 411.138L40.8079 409.941L41.2384 413.416L38.7958 414.08L45.4571 423.449L42.7318 425.28L35.9051 415.701L34.2726 427.441L30.979 427.326L32.5792 415.691L29.3719 416.536L28.7384 413.163L32.9729 412.032L33.2961 409.654ZM37.8171 420.819L40.0572 422.258L37.7115 426.329L35.4661 424.915L37.8171 420.819ZM53.8596 405.353L62.2577 403.099C63.2314 403.081 63.9562 403.434 64.432 404.156C64.9153 404.876 65.2365 405.534 65.3957 406.13L62.5865 407.511C62.3971 406.801 61.6485 406.678 60.3406 407.14L58.0083 407.763L66.9919 412.836C67.7016 413.374 68.0748 414.5 68.1115 416.212C67.9931 417.343 67.1783 418.184 65.6672 418.733L59.9465 420.248C59.2238 420.206 58.5874 419.927 58.0372 419.411C57.485 418.887 56.9803 418.193 56.5231 417.329L59.3443 415.448C59.657 416.286 60.115 416.608 60.7184 416.415L63.7444 415.619C64.1767 415.391 64.0125 415.079 63.252 414.683L54.8996 409.975L56.1854 408.249L54.1021 408.805L53.8596 405.353ZM79.0105 398.699L85.5648 405.985C86.1382 404.983 86.3996 403.782 86.3489 402.38C86.3037 400.969 85.9585 399.343 85.3133 397.502L88.4942 396.786C89.5244 400.796 89.8408 403.708 89.4432 405.52C89.0512 407.323 88.4243 409.019 87.5627 410.607C86.7066 412.186 85.58 413.736 84.1829 415.257L81.9832 412.424L84.2583 409.27L77.1097 401.438L79.0105 398.699Z" fill="black" fill-opacity="0.1"/>
<path d="M11.1854 452.265C12.3876 452.152 13.1928 452.743 13.6012 454.041L15.2025 459.774C15.4297 460.977 14.9727 461.728 13.8313 462.027L9.19756 463.341L7.56541 461.708L9.01665 466.827C9.16017 468.02 8.97447 468.841 8.45953 469.287C7.94247 469.726 7.03165 470.122 5.72708 470.476L4.87511 467.514C5.45251 467.488 5.48262 466.664 4.96544 465.04L3.26807 459.053L4.74877 457.574L2.0961 458.314L1.85027 454.912L11.1854 452.265ZM6.18062 457.168L7.0166 460.073L11.2928 458.873L10.4649 455.953L6.18062 457.168ZM31.0346 445.371L34.1053 445.633L34.0852 446.808L38.5499 445.542L39.0338 449.01L36.6018 449.712L43.4065 458.977L40.7097 460.85L33.7363 451.377L32.2847 463.141L28.9898 463.076L30.4106 451.419L27.2168 452.312L26.5314 448.95L30.748 447.754L31.0346 445.371ZM35.7269 456.465L37.9889 457.87L35.7061 461.976L33.4392 460.597L35.7269 456.465ZM51.6936 440.731L61.4121 437.976C62.1195 437.865 62.714 438.171 63.1954 438.895L64.4579 443.434C64.5361 444.541 64.4197 445.333 64.1086 445.811C63.7953 446.281 63.1749 446.9 62.2472 447.666L63.5407 448.834C64.4962 449.684 65.6014 450.016 66.8562 449.831L67.5815 453.377L65.6704 453.554C64.4221 453.648 62.825 452.769 60.8788 450.917L59.785 449.765L58.2514 451.101L59.3813 455.13L56.2309 456.047L55.3806 453.048L53.3892 450.75L54.3895 449.638L53.0663 444.886L54.368 443.591L51.9359 444.293L51.6936 440.731ZM55.9947 443.142L57.2253 447.482L60.2192 445.196C60.9532 444.663 61.2254 444.062 61.0357 443.393L60.5946 441.838L55.9947 443.142ZM84.3019 431.109L87.2974 432.781L83.7204 439.24C86.2714 441.821 87.7964 443.09 88.2955 443.046C88.8021 443 89.3073 442.605 89.811 441.861L91.8998 444.546C91.3299 445.657 90.6835 446.356 89.9607 446.642C89.2475 446.934 88.4805 447.05 87.6597 446.99C86.8389 446.931 84.8864 445.3 81.8023 442.098L81.3255 443.037L82.8663 448.471L79.6531 449.382L75.3026 434.038L78.5045 433.13L80.0853 438.662L84.3019 431.109ZM99.9713 427.043L106.116 425.301L106.585 428.676L105.593 428.958L108.135 437.921L109.397 437.563L110.109 440.759L103.964 442.501L103.37 439.247L104.693 438.884L102.404 430.727L103.598 429.523L100.565 430.383L99.9713 427.043ZM118.562 421.809L121.831 420.882L122.51 423.321L122.625 422.265C124.169 422.241 125.352 422.373 126.172 422.66C126.998 422.938 127.932 423.513 128.976 424.387L129.262 424.793L127.678 419.249L130.925 418.328L134.511 430.978C134.728 431.542 134.651 432.23 134.28 433.041C133.915 433.843 132.862 434.442 131.123 434.838L130.218 431.647C130.953 431.374 131.131 430.8 130.753 429.924C130.616 429.411 130.346 428.891 129.945 428.363C129.549 427.826 128.609 427.231 127.125 426.58C125.647 425.919 124.324 425.592 123.156 425.598L126.174 436.241L122.893 437.171L118.562 421.809Z" fill="black" fill-opacity="0.1"/>
<path d="M129.367 291.14L132.94 290.164L133.253 291.269L137.075 290.185C138.047 290.064 138.709 290.437 139.061 291.303L141.937 301.535C142.014 303.268 141.77 304.454 141.204 305.093C140.636 305.725 139.845 306.185 138.83 306.473L137.862 303.056C138.493 302.934 138.34 301.406 137.403 298.473L136.172 294.132L134.255 294.675L137.477 306.04L134.029 307.712L130.636 295.702L129.148 296.124L132.424 307.68L128.925 309.171L125.689 297.799L126.71 296.717L125.143 297.162L125.135 293.57L129.69 292.279L129.367 291.14ZM152.681 285.663L153.099 287.14L153.56 285.414L161.001 283.304C161.99 283.3 162.789 284.47 163.397 286.815L166.277 296.973C166.331 297.851 165.751 298.483 164.537 298.868L155.934 301.306C154.671 301.721 153.773 301.375 153.24 300.268L149.561 287.291L152.681 285.663ZM153.624 288.989L156.085 297.67L162.376 295.887L159.915 287.206L153.624 288.989ZM173.308 279.864L183.252 277.044L185.42 276.442L187.363 283.297C187.779 284.421 187.98 285.558 187.965 286.707C187.955 287.847 187.646 289.047 187.037 290.308C186.433 291.559 185.627 292.453 184.618 292.991C183.617 293.527 181.176 294.296 177.294 295.299L176.409 292.091L178.545 291.461L177.103 291.188L174.798 283.059L173.716 283.366L173.308 279.864ZM178.057 282.135L180.566 290.985C181.753 290.819 182.689 290.367 183.373 289.629C184.055 288.884 184.427 288.092 184.49 287.254C184.551 286.408 184.03 284.242 182.927 280.754L178.057 282.135ZM196.03 273.507L207.181 270.345L208.092 273.558L201.657 275.395L202.166 277.187L207.265 275.754L207.783 278.957L203.048 280.299L204.176 284.279L210.588 281.633L212.501 284.769L201.171 289.577L199.845 286.274L201.112 285.672L199.852 281.23L198.454 281.626L197.948 278.639L199.05 278.314L198.668 277.01L200.295 275.83L196.961 276.787L196.03 273.507ZM219.043 266.884L228.762 264.129C229.469 264.018 230.064 264.324 230.545 265.049L231.808 269.587C231.886 270.694 231.769 271.486 231.458 271.964C231.145 272.434 230.525 273.053 229.597 273.819L230.89 274.987C231.846 275.837 232.951 276.169 234.206 275.984L234.931 279.53L233.02 279.707C231.772 279.801 230.175 278.922 228.229 277.07L227.135 275.918L225.601 277.254L226.731 281.283L223.581 282.2L222.73 279.201L220.739 276.903L221.739 275.791L220.416 271.039L221.718 269.744L219.286 270.446L219.043 266.884ZM223.344 269.295L224.575 273.635L227.569 271.349C228.303 270.816 228.575 270.215 228.385 269.546L227.944 267.991L223.344 269.295ZM240.93 260.716L244.2 259.789L244.879 262.227L244.994 261.171C246.538 261.148 247.72 261.279 248.541 261.566C249.366 261.844 250.301 262.419 251.344 263.293L251.63 263.699L250.046 258.155L253.293 257.235L256.88 269.884C257.096 270.448 257.019 271.136 256.649 271.948C256.283 272.75 255.231 273.348 253.492 273.744L252.587 270.553C253.322 270.28 253.5 269.706 253.122 268.831C252.984 268.317 252.715 267.797 252.314 267.269C251.918 266.732 250.978 266.137 249.494 265.486C248.015 264.825 246.692 264.498 245.525 264.504L248.542 275.147L245.261 276.078L240.93 260.716Z" fill="black" fill-opacity="0.1"/>
<path d="M53.7184 506.693L62.0807 504.31C63.0541 504.278 63.7842 504.619 64.2711 505.333C64.7654 506.046 65.0968 506.699 65.2651 507.293L62.4774 508.716C62.2771 508.01 61.5267 507.898 60.2262 508.38L57.9036 509.039L66.9643 513.973C67.6822 514.5 68.0727 515.62 68.1358 517.332C68.0348 518.465 67.233 519.317 65.7305 519.89L60.0338 521.493C59.3106 521.462 58.6699 521.193 58.1118 520.685C57.5516 520.17 57.0363 519.484 56.5659 518.627L59.3578 516.702C59.6834 517.536 60.1463 517.851 60.7466 517.648L63.7601 516.806C64.1887 516.571 64.0198 516.262 63.2533 515.878L54.8294 511.299L56.0885 509.553L54.014 510.142L53.7184 506.693ZM78.6964 499.441C79.3889 503.516 80.0799 506.182 80.7695 507.44C81.4667 508.696 82.2681 509.618 83.1737 510.206C84.0793 510.793 85.6809 510.542 87.9785 509.452L84.694 497.911L88.0179 497.175L92.2054 511.945L89.0285 513.199L88.5011 511.338L88.4934 513.545L87.8278 513.905C85.7264 514.541 84.0451 514.697 82.7837 514.372C81.5299 514.046 80.2796 513.016 79.0329 511.282C77.7863 509.549 76.71 506.841 75.8043 503.16L75.4046 501.02L78.6964 499.441ZM108.451 491.248C109.653 491.135 110.458 491.727 110.866 493.024L112.468 498.758C112.695 499.96 112.238 500.711 111.097 501.01L106.463 502.324L104.831 500.691L106.282 505.81C106.425 507.004 106.24 507.824 105.725 508.27C105.208 508.709 104.297 509.105 102.992 509.459L102.14 506.497C102.718 506.471 102.748 505.647 102.231 504.023L100.533 498.036L102.014 496.557L99.3613 497.297L99.1155 493.895L108.451 491.248ZM103.446 496.151L104.282 499.056L108.558 497.856L107.73 494.936L103.446 496.151ZM121.379 487.51L132.237 484.431L132.3 488.092L126.827 489.668L127.303 491.348L133.313 489.644L133.641 492.864L128.091 494.426C128.438 496.081 128.841 497.128 129.298 497.567C129.761 497.996 130.358 498.111 131.089 497.912L135.215 496.742L135.568 500.089C132.274 501.104 130.321 501.548 129.709 501.421C129.102 501.285 128.417 500.975 127.655 500.493C126.898 500.001 126.266 499.145 125.758 497.925L125.013 495.298L123.156 495.837L122.742 492.617L124.267 492.196L123.769 490.438L121.788 491.011L121.379 487.51ZM143.263 481.329L152.982 478.574C153.689 478.463 154.283 478.769 154.765 479.493L156.027 484.032C156.106 485.139 155.989 485.931 155.678 486.409C155.365 486.879 154.744 487.498 153.817 488.264L155.11 489.432C156.066 490.282 157.171 490.614 158.426 490.429L159.151 493.975L157.24 494.152C155.992 494.246 154.394 493.367 152.448 491.515L151.354 490.363L149.821 491.699L150.951 495.728L147.8 496.645L146.95 493.646L144.959 491.348L145.959 490.236L144.636 485.484L145.937 484.189L143.505 484.891L143.263 481.329ZM147.564 483.74L148.795 488.08L151.789 485.794C152.523 485.261 152.795 484.66 152.605 483.991L152.164 482.436L147.564 483.74Z" fill="black" fill-opacity="0.1"/>
<path d="M71.5686 533.334L76.8676 531.831L80.208 543.613C80.4602 544.646 80.5839 545.569 80.579 546.382C80.5796 547.186 80.1758 548.125 79.3677 549.199C78.5617 550.28 77.3489 551.143 75.7293 551.789L74.4998 548.484C75.5265 548.095 76.2318 547.432 76.6157 546.495C76.9975 545.55 76.3473 542.312 74.6651 536.78L75.9747 535.556L71.713 536.764L71.5686 533.334ZM91.0288 527.585C91.7213 531.66 92.4123 534.326 93.102 535.584C93.7991 536.84 94.6005 537.762 95.5061 538.35C96.4117 538.938 98.0133 538.687 100.311 537.597L97.0264 526.055L100.35 525.32L104.538 540.089L101.361 541.343L100.833 539.483L100.826 541.69L100.16 542.049C98.0588 542.685 96.3775 542.841 95.1161 542.517C93.8623 542.19 92.612 541.16 91.3654 539.426C90.1187 537.693 89.0424 534.985 88.1367 531.304L87.737 529.164L91.0288 527.585ZM111.316 522.003L119.678 519.62C120.652 519.588 121.382 519.929 121.869 520.644C122.363 521.356 122.694 522.009 122.863 522.603L120.075 524.027C119.875 523.32 119.124 523.208 117.824 523.691L115.501 524.349L124.562 529.284C125.28 529.811 125.67 530.93 125.733 532.642C125.632 533.775 124.831 534.628 123.328 535.2L117.631 536.803C116.908 536.772 116.268 536.503 115.709 535.996C115.149 535.481 114.634 534.794 114.163 533.937L116.955 532.013C117.281 532.846 117.744 533.161 118.344 532.959L121.358 532.117C121.786 531.881 121.617 531.572 120.851 531.188L112.427 526.609L113.686 524.864L111.612 525.452L111.316 522.003ZM132.929 515.9L143.166 512.998L143.708 516.498L140.066 517.531L142.141 524.848C142.335 526.019 142.909 526.583 143.863 526.54L143.941 529.952C142.92 530.274 141.954 530.187 141.041 529.691C140.137 529.192 139.51 528.371 139.161 527.227L136.876 519.166L138.132 518.055L133.54 519.344L132.929 515.9ZM172.57 504.624L172.989 506.101L173.449 504.375L180.89 502.265C181.88 502.261 182.679 503.431 183.287 505.776L186.167 515.934C186.221 516.812 185.64 517.444 184.426 517.829L175.824 520.268C174.561 520.682 173.663 520.336 173.13 519.229L169.45 506.252L172.57 504.624ZM173.513 507.95L175.974 516.632L182.265 514.848L179.804 506.167L173.513 507.95ZM192.741 498.978L196.011 498.051L196.69 500.49L196.805 499.434C198.349 499.41 199.532 499.542 200.352 499.829C201.178 500.107 202.112 500.682 203.156 501.556L203.441 501.962L201.857 496.418L205.104 495.497L208.691 508.147C208.908 508.711 208.831 509.399 208.46 510.21C208.094 511.012 207.042 511.611 205.303 512.007L204.398 508.816C205.133 508.543 205.311 507.969 204.933 507.093C204.796 506.58 204.526 506.06 204.125 505.532C203.729 504.995 202.789 504.4 201.305 503.749C199.826 503.088 198.503 502.761 197.336 502.767L200.353 513.41L197.073 514.34L192.741 498.978ZM215.785 492.506L226.935 489.345L227.846 492.558L221.411 494.394L221.92 496.187L227.019 494.753L227.537 497.956L222.802 499.299L223.93 503.278L230.342 500.632L232.255 503.769L220.926 508.576L219.599 505.274L220.866 504.671L219.606 500.229L218.208 500.625L217.703 497.638L218.804 497.314L218.422 496.009L220.049 494.829L216.715 495.787L215.785 492.506Z" fill="black" fill-opacity="0.1"/>
<path d="M192.058 530.927C194.192 530.833 195.672 532.017 196.5 534.479L193.513 535.326C193.259 534.545 192.65 534.332 191.687 534.686L187.673 535.824C187.354 537.847 187.301 539.324 187.516 540.254C187.738 541.181 188.22 541.979 188.962 542.645C189.708 543.303 190.431 543.719 191.131 543.894C191.835 544.06 192.703 543.94 193.733 543.534C194.762 543.128 195.549 542.166 196.093 540.648L198.824 542.59C197.974 544.057 197.238 545.086 196.618 545.676C195.995 546.258 195.085 546.728 193.886 547.084C192.695 547.438 191.536 547.515 190.407 547.315C189.279 547.115 188.117 546.482 186.921 545.416C185.724 544.343 184.933 542.959 184.551 541.265C184.168 539.571 184.082 538.438 184.293 537.866L186.253 536.227L183.569 536.988L183.446 535.865L183.414 534.766L183.546 533.34L192.058 530.927ZM206.78 526.68L210.128 525.73L212.402 533.795L214.325 533.274L214.766 536.072L213.269 536.509L213.554 537.512L219.571 535.794L220.225 539.433L209.835 542.355L209.355 538.727L210.065 538.526L209.781 537.522L208.676 537.836L208.189 535.001L209.043 534.747L206.78 526.68ZM227.065 520.965L233.21 519.223L233.68 522.598L232.687 522.879L235.229 531.842L236.491 531.484L237.203 534.681L231.058 536.423L230.465 533.168L231.787 532.806L229.498 524.648L230.692 523.445L227.659 524.304L227.065 520.965ZM253.733 513.441C255.866 513.347 257.347 514.531 258.175 516.992L255.187 517.84C254.933 517.059 254.324 516.846 253.361 517.2L249.348 518.338C249.028 520.361 248.976 521.838 249.19 522.768C249.413 523.695 249.895 524.492 250.636 525.159C251.383 525.816 252.106 526.233 252.805 526.408C253.51 526.574 254.377 526.454 255.407 526.048C256.437 525.642 257.224 524.68 257.768 523.162L260.499 525.104C259.648 526.571 258.912 527.6 258.292 528.19C257.669 528.772 256.759 529.242 255.561 529.598C254.37 529.951 253.21 530.028 252.082 529.829C250.953 529.629 249.791 528.996 248.596 527.93C247.398 526.857 246.608 525.473 246.225 523.779C245.842 522.085 245.756 520.952 245.968 520.38L247.927 518.741L245.244 519.502L245.12 518.379L245.089 517.28L245.22 515.854L253.733 513.441ZM276.335 506.618L279.331 508.29L275.754 514.749C278.305 517.331 279.83 518.6 280.329 518.556C280.836 518.509 281.341 518.114 281.845 517.371L283.933 520.055C283.363 521.167 282.717 521.866 281.994 522.152C281.281 522.443 280.514 522.559 279.693 522.5C278.872 522.44 276.92 520.809 273.836 517.607L273.359 518.546L274.9 523.98L271.687 524.891L267.336 509.547L270.538 508.639L272.119 514.172L276.335 506.618Z" fill="black" fill-opacity="0.1"/>
<path d="M-20.4314 354.334L-15.1324 352.831L-11.792 364.613C-11.5398 365.646 -11.4161 366.569 -11.421 367.382C-11.4204 368.186 -11.8242 369.125 -12.6323 370.199C-13.4383 371.28 -14.6511 372.143 -16.2707 372.789L-17.5002 369.484C-16.4735 369.095 -15.7682 368.432 -15.3843 367.495C-15.0025 366.55 -15.6527 363.312 -17.3349 357.78L-16.0253 356.556L-20.287 357.764L-20.4314 354.334ZM-0.971218 348.585C-0.278721 352.66 0.412337 355.326 1.10196 356.584C1.79909 357.84 2.60047 358.762 3.50607 359.35C4.41168 359.938 6.0133 359.687 8.31093 358.597L5.0264 347.055L8.3503 346.32L12.5378 361.089L9.36091 362.343L8.83348 360.483L8.82579 362.689L8.16026 363.049C6.05885 363.685 4.37747 363.841 3.11613 363.517C1.8623 363.19 0.612042 362.16 -0.634644 360.426C-1.88133 358.693 -2.95756 355.985 -3.86333 352.304L-4.26303 350.164L-0.971218 348.585ZM19.316 343.003L27.6784 340.62C28.6517 340.588 29.3819 340.929 29.8687 341.644C30.363 342.356 30.6944 343.009 30.8627 343.603L28.0751 345.027C27.8747 344.32 27.1243 344.208 25.8238 344.691L23.5013 345.349L32.5619 350.284C33.2798 350.811 33.6703 351.93 33.7334 353.642C33.6324 354.775 32.8306 355.628 31.3282 356.2L25.6314 357.803C24.9082 357.772 24.2675 357.503 23.7095 356.996C23.1493 356.481 22.6339 355.794 22.1635 354.937L24.9554 353.013C25.281 353.846 25.744 354.161 26.3442 353.959L29.3577 353.117C29.7864 352.881 29.6174 352.572 28.8509 352.188L20.427 347.609L21.6861 345.864L19.6116 346.452L19.316 343.003ZM40.929 336.9L51.1661 333.998L51.7079 337.498L48.0663 338.531L50.1409 345.848C50.3349 347.019 50.9089 347.583 51.863 347.54L51.9414 350.952C50.9202 351.274 49.9535 351.187 49.0413 350.691C48.1366 350.192 47.5099 349.371 47.1613 348.227L44.8758 340.166L46.132 339.055L41.5401 340.344L40.929 336.9ZM80.57 325.624L80.9887 327.101L81.4494 325.375L88.8905 323.265C89.8799 323.261 90.6786 324.431 91.2866 326.776L94.1667 336.934C94.2207 337.812 93.6405 338.444 92.426 338.829L83.8237 341.267C82.5608 341.682 81.6628 341.336 81.1295 340.229L77.4503 327.252L80.57 325.624ZM81.513 328.95L83.9743 337.631L90.2654 335.848L87.8041 327.167L81.513 328.95ZM100.741 319.978L104.011 319.051L104.69 321.49L104.805 320.434C106.349 320.41 107.532 320.542 108.352 320.829C109.178 321.107 110.112 321.682 111.156 322.556L111.441 322.962L109.857 317.418L113.104 316.497L116.691 329.147C116.908 329.711 116.831 330.399 116.46 331.21C116.094 332.012 115.042 332.611 113.303 333.007L112.398 329.816C113.133 329.543 113.311 328.969 112.933 328.093C112.796 327.58 112.526 327.06 112.125 326.532C111.729 325.995 110.789 325.4 109.305 324.749C107.826 324.088 106.503 323.761 105.336 323.767L108.353 334.41L105.073 335.34L100.741 319.978ZM123.785 313.506L134.935 310.345L135.846 313.558L129.411 315.394L129.92 317.187L135.019 315.753L135.537 318.956L130.802 320.299L131.93 324.278L138.342 321.632L140.255 324.769L128.926 329.576L127.599 326.274L128.866 325.671L127.606 321.229L126.208 321.625L125.703 318.638L126.804 318.314L126.422 317.009L128.049 315.829L124.715 316.787L123.785 313.506Z" fill="black" fill-opacity="0.1"/>
<path d="M-2.43136 318.334L2.86759 316.831L6.20798 328.613C6.46022 329.646 6.5839 330.569 6.57903 331.382C6.57955 332.186 6.17576 333.125 5.36766 334.199C4.5617 335.28 3.34892 336.143 1.72933 336.789L0.499778 333.484C1.52648 333.095 2.2318 332.432 2.61573 331.495C2.99753 330.55 2.34734 327.312 0.665149 321.78L1.9747 320.556L-2.287 321.764L-2.43136 318.334ZM17.0288 312.585C17.7213 316.66 18.4123 319.326 19.102 320.584C19.7991 321.84 20.6005 322.762 21.5061 323.35C22.4117 323.938 24.0133 323.687 26.3109 322.597L23.0264 311.055L26.3503 310.32L30.5378 325.089L27.3609 326.343L26.8335 324.483L26.8258 326.689L26.1603 327.049C24.0588 327.685 22.3775 327.841 21.1161 327.517C19.8623 327.19 18.612 326.16 17.3654 324.426C16.1187 322.693 15.0424 319.985 14.1367 316.304L13.737 314.164L17.0288 312.585ZM37.316 307.003L45.6784 304.62C46.6517 304.588 47.3819 304.929 47.8687 305.644C48.363 306.356 48.6944 307.009 48.8627 307.603L46.0751 309.027C45.8747 308.32 45.1243 308.208 43.8238 308.691L41.5013 309.349L50.5619 314.284C51.2798 314.811 51.6703 315.93 51.7334 317.642C51.6324 318.775 50.8306 319.628 49.3282 320.2L43.6314 321.803C42.9082 321.772 42.2675 321.503 41.7095 320.996C41.1493 320.481 40.6339 319.794 40.1635 318.937L42.9554 317.013C43.281 317.846 43.744 318.161 44.3442 317.959L47.3577 317.117C47.7864 316.881 47.6174 316.572 46.8509 316.188L38.427 311.609L39.6861 309.864L37.6116 310.452L37.316 307.003ZM58.929 300.9L69.1661 297.998L69.7079 301.498L66.0663 302.531L68.1409 309.848C68.3349 311.019 68.9089 311.583 69.863 311.54L69.9414 314.952C68.9202 315.274 67.9535 315.187 67.0413 314.691C66.1366 314.192 65.5099 313.371 65.1613 312.227L62.8758 304.166L64.132 303.055L59.5401 304.344L58.929 300.9ZM98.57 289.624L98.9887 291.101L99.4494 289.375L106.89 287.265C107.88 287.261 108.679 288.431 109.287 290.776L112.167 300.934C112.221 301.812 111.64 302.444 110.426 302.829L101.824 305.267C100.561 305.682 99.6628 305.336 99.1295 304.229L95.4503 291.252L98.57 289.624ZM99.513 292.95L101.974 301.631L108.265 299.848L105.804 291.167L99.513 292.95ZM118.741 283.978L122.011 283.051L122.69 285.49L122.805 284.434C124.349 284.41 125.532 284.542 126.352 284.829C127.178 285.107 128.112 285.682 129.156 286.556L129.441 286.962L127.857 281.418L131.104 280.497L134.691 293.147C134.908 293.711 134.831 294.399 134.46 295.21C134.094 296.012 133.042 296.611 131.303 297.007L130.398 293.816C131.133 293.543 131.311 292.969 130.933 292.093C130.796 291.58 130.526 291.06 130.125 290.532C129.729 289.995 128.789 289.4 127.305 288.749C125.826 288.088 124.503 287.761 123.336 287.767L126.353 298.41L123.073 299.34L118.741 283.978ZM141.785 277.506L152.935 274.345L153.846 277.558L147.411 279.394L147.92 281.187L153.019 279.753L153.537 282.956L148.802 284.299L149.93 288.278L156.342 285.632L158.255 288.769L146.926 293.576L145.599 290.274L146.866 289.671L145.606 285.229L144.208 285.625L143.703 282.638L144.804 282.314L144.422 281.009L146.049 279.829L142.715 280.787L141.785 277.506Z" fill="black" fill-opacity="0.1"/>
<path d="M-19.9418 151.927C-17.8082 151.833 -16.3275 153.017 -15.4998 155.479L-18.4875 156.326C-18.7413 155.545 -19.3499 155.332 -20.3132 155.686L-24.3269 156.824C-24.6465 158.847 -24.6988 160.324 -24.4839 161.254C-24.2615 162.181 -23.7797 162.979 -23.0384 163.645C-22.2918 164.303 -21.5688 164.719 -20.8695 164.894C-20.1648 165.06 -19.2974 164.94 -18.2675 164.534C-17.2375 164.128 -16.4506 163.166 -15.9066 161.648L-13.1757 163.59C-14.0264 165.057 -14.762 166.086 -15.3824 166.676C-16.0049 167.258 -16.9154 167.728 -18.1137 168.084C-19.3045 168.438 -20.4642 168.515 -21.5927 168.315C-22.7213 168.115 -23.8832 167.482 -25.0787 166.416C-26.2763 165.343 -27.0665 163.959 -27.4494 162.265C-27.8323 160.571 -27.918 159.438 -27.7065 158.866L-25.7474 157.227L-28.4307 157.988L-28.554 156.865L-28.5856 155.766L-28.4539 154.34L-19.9418 151.927ZM-5.2204 147.68L-1.87191 146.73L0.402343 154.795L2.32538 154.274L2.76559 157.072L1.2693 157.509L1.55379 158.512L7.5711 156.794L8.22531 160.433L-2.16477 163.355L-2.64515 159.727L-1.93487 159.526L-2.21936 158.522L-3.32425 158.836L-3.81107 156.001L-2.95742 155.747L-5.2204 147.68ZM15.8112 141.717L19.1597 140.767L21.434 148.832L23.357 148.311L23.7972 151.109L22.3009 151.546L22.5854 152.549L28.6027 150.831L29.257 154.47L18.8669 157.392L18.3865 153.764L19.0968 153.563L18.8123 152.559L17.7074 152.873L17.2206 150.039L18.0742 149.784L15.8112 141.717ZM36.0971 136.002L42.2416 134.26L42.7113 137.635L41.7191 137.916L44.2604 146.879L45.5231 146.521L46.2345 149.718L40.09 151.46L39.4962 148.205L40.8185 147.843L38.5299 139.685L39.7235 138.482L36.6907 139.341L36.0971 136.002ZM62.7642 128.478C64.8978 128.384 66.3785 129.568 67.2062 132.03L64.2185 132.877C63.9647 132.096 63.3561 131.883 62.3928 132.237L58.3792 133.375C58.0596 135.398 58.0072 136.875 58.2221 137.805C58.4445 138.732 58.9263 139.529 59.6676 140.196C60.4142 140.854 61.1372 141.27 61.8365 141.445C62.5412 141.611 63.4086 141.491 64.4385 141.085C65.4685 140.679 66.2554 139.717 66.7994 138.199L69.5303 140.141C68.6796 141.608 67.944 142.637 67.3236 143.227C66.7011 143.809 65.7906 144.279 64.5923 144.635C63.4015 144.988 62.2418 145.066 61.1133 144.866C59.9847 144.666 58.8228 144.033 57.6273 142.967C56.4297 141.894 55.6395 140.51 55.2566 138.816C54.8737 137.122 54.788 135.989 54.9995 135.417L56.9586 133.778L54.2753 134.539L54.152 133.416L54.1204 132.317L54.2521 130.891L62.7642 128.478ZM85.3671 121.655L88.3625 123.327L84.7856 129.786C87.3366 132.368 88.8616 133.637 89.3607 133.593C89.8673 133.546 90.3725 133.151 90.8762 132.408L92.965 135.092C92.395 136.204 91.7487 136.903 91.0259 137.189C90.3127 137.48 89.5457 137.596 88.7249 137.537C87.9041 137.477 85.9516 135.846 82.8675 132.644L82.3907 133.583L83.9314 139.017L80.7183 139.928L76.3678 124.584L79.5697 123.676L81.1505 129.209L85.3671 121.655Z" fill="black" fill-opacity="0.1"/>
</svg>
